HIERARCHY
ROOT Hips
{
	OFFSET 0.000000 0.000000 0.000000
	CHANNELS 6 Xposition Yposition Zposition Zrotation Yrotation Xrotation 
	JOINT LHipJoint
	{
		OFFSET 0.000000 0.000000 0.000000
		CHANNELS 3 Zrotation Yrotation Xrotation
		JOINT LeftUpLeg
		{
			OFFSET 1.363060 -1.794630 0.839290
			CHANNELS 3 Zrotation Yrotation Xrotation
			JOINT LeftLeg
			{
				OFFSET 2.448110 -6.726130 0.000000
				CHANNELS 3 Zrotation Yrotation Xrotation
				JOINT LeftFoot
				{
					OFFSET 2.562200 -7.039590 0.000000
					CHANNELS 3 Zrotation Yrotation Xrotation
					JOINT LeftToeBase
					{
						OFFSET 0.157640 -0.433110 2.322550
						CHANNELS 3 Zrotation Yrotation Xrotation
						End Site
						{
							OFFSET 0.000000 0.000000 0.000000
						}
					}
				}
			}
		}
	}
	JOINT RHipJoint
	{
		OFFSET 0.000000 0.000000 0.000000
		CHANNELS 3 Zrotation Yrotation Xrotation
		JOINT RightUpLeg
		{
			OFFSET -1.305520 -1.794630 0.839290
			CHANNELS 3 Zrotation Yrotation Xrotation
			JOINT RightLeg
			{
				OFFSET -2.542530 -6.985550 0.000000
				CHANNELS 3 Zrotation Yrotation Xrotation
				JOINT RightFoot
				{
					OFFSET -2.568260 -7.056230 0.000000
					CHANNELS 3 Zrotation Yrotation Xrotation
					JOINT RightToeBase
					{
						OFFSET -0.164730 -0.452590 2.363150
						CHANNELS 3 Zrotation Yrotation Xrotation
						End Site
						{
							OFFSET 0.000000 0.000000 0.000000
						}
					}
				}
			}
		}
	}
}
MOTION
Frames: 19
Frame Time: 0.008333
3.992892 16.788404 5.116146 2.762216 29.050194 -0.005693 -11.927453 5.493429 -0.618913 8.729802 19.403797 10.225970 0.420506 1.923744 27.171529 2.263429 10.897174 26.946534 4.975400 0.000000 -73.789300 8.360353 -1.190714 -1.665678 19.337661 -17.650320 -22.962372 1.963220 -0.822725 26.292091 -5.033692 -19.331631 -21.162414 -176.023299 0.000000 -13.433100
4.021904 16.782919 5.254354 2.768844 28.623333 0.013478 -11.938589 5.471436 -0.536887 8.633667 18.770363 9.713066 0.458626 1.973355 28.732515 2.332840 10.902568 27.742834 5.053400 0.000000 -70.761300 8.351728 -1.219344 -1.668111 19.365090 -17.395521 -22.474038 1.946520 -0.844579 26.637428 -5.059206 -19.319986 -21.640624 -175.830900 -0.000000 -14.092001
4.048155 16.777089 5.390674 2.799968 28.204175 0.047298 -11.935473 5.442452 -0.461902 8.455889 18.093166 9.120023 0.486001 2.030549 30.386010 2.390419 10.956299 28.241897 5.123901 -0.000000 -67.456900 8.353765 -1.239835 -1.674777 19.362830 -17.139915 -21.977675 1.929242 -0.865452 26.972527 -5.089234 -19.317547 -22.157106 -175.622600 0.000000 -14.698500
4.071782 16.771042 5.524855 2.852568 27.794981 0.090092 -11.919714 5.407434 -0.396276 8.209059 17.392083 8.450999 0.505855 2.096574 32.111014 2.436384 11.080089 28.427087 5.197800 -0.000000 -64.079000 8.366377 -1.253368 -1.687380 19.331208 -16.898091 -21.476289 1.912150 -0.885953 27.298415 -5.120470 -19.315386 -22.697619 -175.405300 -0.000000 -15.251700
4.092982 16.764923 5.656724 2.921213 27.393911 0.136623 -11.893989 5.367118 -0.342993 7.912869 16.695995 7.706630 0.521184 2.172218 33.893620 2.470720 11.284288 28.276511 5.276900 0.000000 -60.684800 8.388327 -1.261793 -1.705978 19.274967 -16.679095 -20.971368 1.896098 -0.906016 27.611366 -5.150212 -19.306125 -23.247385 -175.186100 -0.000000 -15.753300
4.111977 16.758908 5.786231 3.001528 26.996719 0.183310 -11.860519 5.321331 -0.301681 7.575725 16.016895 6.897526 0.535751 2.255435 35.696313 2.498662 11.606868 27.827071 5.384100 -0.000000 -57.606900 8.418746 -1.266363 -1.730739 19.197304 -16.489515 -20.463281 1.881865 -0.925250 27.904296 -5.175503 -19.281089 -23.790146 -174.973401 0.000000 -16.195800
4.128974 16.753158 5.913378 3.087629 26.596859 0.227524 -11.822037 5.269817 -0.272878 7.212486 15.374706 6.029119 0.551684 2.344174 37.494291 2.523607 12.061603 27.100109 5.523599 0.000000 -54.938700 8.455778 -1.268770 -1.760033 19.105093 -16.328649 -19.950898 1.870126 -0.942793 28.167607 -5.194352 -19.234071 -24.311455 -174.774500 -0.000000 -16.576200
4.144203 16.747827 6.038286 3.173502 26.185882 0.267454 -11.780995 5.212319 -0.256881 6.838064 14.787870 5.106356 0.569938 2.436186 39.265284 2.548064 12.647540 26.112535 5.687900 0.000000 -52.582900 8.497238 -1.270627 -1.791247 19.006214 -16.190746 -19.432299 1.861378 -0.957551 28.390627 -5.205685 -19.161305 -24.799931 -174.595500 -0.000000 -16.893800
4.157795 16.743026 6.161164 3.255160 25.755402 0.303825 -11.738878 5.148121 -0.251752 6.458941 14.261951 4.139356 0.590897 2.527679 40.975739 2.577246 13.373760 24.921276 5.879200 -0.000000 -50.752900 8.541532 -1.272914 -1.821814 18.906731 -16.066874 -18.904857 1.855830 -0.968487 28.563602 -5.208738 -19.059635 -25.246343 -174.441100 0.000000 -17.142000
4.169958 16.738906 6.282195 3.326242 25.297203 0.337130 -11.697546 5.076982 -0.256680 6.087544 13.807013 3.131719 0.613483 2.616370 42.607217 2.612410 14.217051 23.546626 6.075800 0.000000 -49.231600 8.585731 -1.277023 -1.847693 18.817085 -15.940870 -18.363595 1.853325 -0.974205 28.674007 -5.204571 -18.932988 -25.643220 -174.313900 -0.000000 -17.314200
4.180638 16.735469 6.401696 3.390624 24.804185 0.370915 -11.655500 4.999116 -0.270156 5.721333 13.424106 2.093590 0.636157 2.699426 44.135309 2.655235 15.155701 22.029594 6.261100 0.000000 -48.032300 8.631144 -1.282641 -1.867459 18.733877 -15.808654 -17.812089 1.854190 -0.975067 28.727527 -5.191997 -18.772861 -25.997082 -174.213600 0.000000 -17.446400
4.190034 16.732869 6.519860 3.441724 24.271467 0.407089 -11.614051 4.914131 -0.289206 5.367592 13.107101 1.028546 0.657184 2.774562 45.542128 2.706948 16.160785 20.417697 6.418600 0.000000 -47.165500 8.674506 -1.290535 -1.877037 18.668534 -15.647836 -17.241802 1.857422 -0.969470 28.709104 -5.174141 -18.593070 -26.300668 -174.139900 0.000000 -17.508099
4.198129 16.731145 6.636904 3.481715 23.696439 0.448646 -11.571831 4.823063 -0.312790 5.025886 12.853204 -0.060053 0.674217 2.841303 46.822414 2.763787 17.177872 18.710787 6.513699 -0.000000 -46.221600 8.716122 -1.300579 -1.874644 18.620461 -15.450580 -16.653647 1.862705 -0.957665 28.622056 -5.151901 -18.395701 -26.559542 -174.089800 -0.000001 -17.516200
4.204932 16.730341 6.753034 3.512566 23.079047 0.499315 -11.527383 4.726031 -0.336875 4.688955 12.642664 -1.164688 0.685892 2.897561 47.959049 2.826039 18.180729 16.976969 6.544500 0.000000 -45.492100 8.756473 -1.311775 -1.859727 18.587898 -15.208951 -16.046650 1.869405 -0.939659 28.467424 -5.126869 -18.186569 -26.778928 -174.059900 0.000000 -17.486200
4.210451 16.730552 6.868294 3.536372 22.421464 0.561070 -11.479445 4.624301 -0.360146 4.354499 12.465576 -2.285122 0.690290 2.943984 48.957080 2.887533 19.110216 15.208218 6.482800 0.000000 -44.579400 8.795887 -1.323664 -1.831742 18.569205 -14.918410 -15.421427 1.876958 -0.915802 28.248548 -5.100563 -17.971998 -26.963658 -174.046300 0.000001 -17.428300
4.214703 16.731803 6.982713 3.556392 21.727891 0.636071 -11.426467 4.518464 -0.379148 4.013784 12.300149 -3.415770 0.686677 2.979776 49.810779 2.945836 19.937908 13.451240 6.332400 -0.000000 -43.661700 8.835533 -1.335160 -1.791899 18.559260 -14.579665 -14.779271 1.884785 -0.886661 27.970576 -5.073970 -17.756830 -27.118284 -174.045800 -0.000000 -17.353400
4.217775 16.734174 7.096263 3.575236 21.003705 0.724816 -11.367386 4.409608 -0.392326 3.662038 12.131176 -4.555334 0.673987 3.005782 50.527839 2.995152 20.621382 11.701261 6.083000 0.000000 -42.500500 8.876238 -1.345555 -1.741691 18.553258 -14.196484 -14.121691 1.892446 -0.852830 27.638463 -5.047804 -17.545199 -27.246344 -174.055600 0.000000 -17.271200
4.219735 16.737691 7.208797 3.595710 20.255153 0.826939 -11.301311 4.298168 -0.396908 3.291833 11.937706 -5.698067 0.652249 3.021710 51.106872 3.033309 21.147484 9.995035 5.751500 -0.000001 -41.289900 8.919103 -1.353828 -1.683764 18.545031 -13.776198 -13.450888 1.899532 -0.814971 27.257670 -5.022131 -17.339084 -27.349642 -174.074000 0.000000 -17.186900
4.220793 16.742401 7.320178 3.618121 19.488352 0.940320 -11.228217 4.184676 -0.391919 2.901545 11.708243 -6.842175 0.621004 3.028467 51.558020 3.056592 21.498093 8.319551 5.341000 0.000000 -39.837200 8.964237 -1.359929 -1.619978 18.531360 -13.325771 -12.767848 1.905723 -0.773691 26.832391 -4.997126 -17.141269 -27.428166 -174.100099 -0.000000 -17.103900
